<svg xmlns="http://www.w3.org/2000/svg" width="100" height="60" viewBox="0 0 100 60"><g><g><g><path fill="#0072ce" d="M0 4a4 4 0 0 1 4-4h92a4 4 0 0 1 4 4v52a4 4 0 0 1-4 4H4a4 4 0 0 1-4-4z"/></g><g><path fill="#fff" d="M53.004 35.613c0-2.24-1.728-2.664-3.266-2.664h-6.193l-2.465 2.65-2.385-2.65h-7.794v8.088h7.676l2.48-2.678 2.387 2.678h3.767v-2.713h2.418c1.694 0 3.375-.464 3.375-2.71zm-20.172 3.738v-1.609h4.25v-1.65h-4.25v-1.47h4.854l2.118 2.356-2.212 2.373zm9.478-2.344l2.957-3.19V40.3zm4.908-.326v-2.06h2.528c.7 0 1.186.285 1.186.992 0 .7-.463 1.068-1.208 1.068zm15.587-3.732v8.088h6.461v-1.679l-4.533-.007v-1.609h4.422v-1.65h-4.422v-1.47h4.533v-1.673zm-2.458 4.33c.51-.203 1.373-.862 1.373-2.152 0-.923-.384-1.428-.996-1.796-.635-.339-1.35-.382-2.33-.382h-4.47v8.088h1.946v-2.954h2.07c.706 0 1.137.069 1.42.359.36.376.313 1.096.313 1.583v1.012h1.944v-1.604c-.008-.713-.048-1.081-.321-1.476-.165-.236-.518-.52-.949-.679zm-2.126-.84h-2.349v-1.817h2.38c.345 0 .69.007.924.146.25.13.4.381.4.727s-.15.625-.4.777c-.259.153-.579.166-.955.166zm18.45.332c-.439-.443-1.16-.625-2.211-.65l-1.042-.028c-.33 0-.55-.021-.754-.092a.62.62 0 0 1-.424-.603c0-.256.08-.45.291-.581.195-.133.424-.147.776-.147h3.552v-1.72h-3.882c-2.03 0-2.768 1.234-2.768 2.407 0 2.56 2.267 2.442 4.078 2.503.337 0 .542.056.69.18.133.112.236.299.236.535 0 .22-.096.402-.229.527-.163.152-.423.2-.79.2h-3.757v1.735h3.771c1.953 0 3.042-.813 3.042-2.552 0-.833-.202-1.324-.58-1.714zm7.733 3.231v2.102c-.776.374-1.797.52-2.843.52h-5.023v-.722c-.582.466-1.632.723-2.638.723H58.065v-2.609c0-.32-.032-.332-.353-.332h-.251v2.94h-5.213V39.58c-.873.376-1.862.41-2.7.397h-.622v2.655l-6.32-.006-1.554-1.754-1.649 1.754H29.15V31.34H39.6l1.499 1.727 1.6-1.727h6.996c.809 0 2.136.084 2.732.66v-.66h6.25c.588 0 1.86.118 2.615.66v-.66h9.476V32c.471-.45 1.467-.66 2.316-.66h5.306V32c.557-.401 1.344-.66 2.426-.66h3.588v1.61h-3.861c-2.035 0-2.782 1.234-2.782 2.407 0 2.56 2.271 2.442 4.091 2.503.338 0 .543.056.683.18.143.112.237.299.237.535a.71.71 0 0 1-.23.527c-.155.152-.414.2-.784.2H78.03v1.735h3.744c1.242 0 2.16-.348 2.63-1.035zm0-3.03c-.054-.07-.1-.14-.18-.201-.43-.443-1.136-.625-2.194-.65l-1.049-.029c-.322 0-.541-.02-.745-.092a.61.61 0 0 1-.423-.602c0-.257.078-.451.282-.582.197-.133.431-.146.783-.146h3.526z"/></g><g><path fill="#fff" d="M15.44 28.697v-5.912l2.348-5.359h5.055l.651 1.331v-1.33h5.928l1.296 2.91 1.263-2.91h18.82c.855 0 1.624.158 2.189.657v-.658h5.151v.658c.887-.484 1.986-.658 3.235-.658h7.465l.692 1.331v-1.33h5.526l.755 1.33v-1.33h5.385v11.27h-5.442l-1.028-1.705v1.705h-6.79l-.738-1.795h-1.672l-.755 1.795H61.25c-1.382 0-2.433-.325-3.109-.686v.686h-8.376V26.14c0-.361-.065-.382-.284-.39h-.313l.007 2.947H32.98v-1.393l-.581 1.399h-3.383l-.582-1.378v1.372h-6.517l-.745-1.795H19.5l-.747 1.795zm64.031-1.588v-8.08h-1.985v5.627l-3.408-5.627h-2.952v7.643l-3.282-7.643H64.94l-2.732 6.354h-.871c-.51 0-1.053-.097-1.351-.416-.36-.408-.533-1.032-.533-1.898 0-.847.227-1.49.557-1.83.385-.374.784-.48 1.492-.48h1.837v-1.73h-1.877c-1.335 0-2.317.297-2.944.942-.833.865-1.045 1.96-1.045 3.16 0 1.469.355 2.398 1.036 3.084.676.686 1.869.894 2.811.894h2.268l.732-1.802h4.027l.755 1.802h3.948v-6.065l3.674 6.065zm-22.957 0v-8.08h-1.968v8.08zm-3.092-5.904c0-.902-.368-1.429-.981-1.79-.627-.36-1.357-.387-2.348-.387h-4.458v8.081h1.938v-2.94h2.081c.698 0 1.13.063 1.413.347.353.388.306 1.088.306 1.574l.007 1.019h1.955v-1.587c0-.722-.047-1.081-.32-1.483-.173-.235-.535-.52-.96-.68.504-.2 1.367-.866 1.367-2.154zm-9.141 5.904v-1.671h-4.53v-1.614h4.421v-1.656h-4.421V20.71h4.53v-1.683h-6.466v8.081zm-7.91 0v-8.08h-3.228l-2.33 5.481-2.538-5.482h-3.164v7.651l-3.297-7.65h-2.88l-3.471 8.08h2.105l.753-1.802h4.036l.745 1.802h3.943v-6.334l2.818 6.334h1.702l2.81-6.329.008 6.329zm31.316-3.489H65.01l1.334-3.22zm-17.753-1.127h-2.361v-1.79h2.393c.339 0 .692.015.922.145.252.118.408.367.408.713 0 .352-.148.635-.4.766-.268.16-.584.166-.962.166zM19.011 23.62l1.32-3.22 1.326 3.22z"/></g></g></g></svg>