<?xml version="1.0" encoding="utf-8"?>
<svg width="100px" height="60px" viewBox="0 0 100 60" version="1.1" xmlns:xlink="http://www.w3.org/1999/xlink" xmlns="http://www.w3.org/2000/svg">
  <desc>Created with Lunacy</desc>
  <g id="Bitcoin">
    <g id="Bitcoin-dark">
      <path d="M3.999 0L96.001 0Q96.1975 0 96.393 0.0192563Q96.5885 0.0385126 96.7812 0.0768396Q96.9738 0.115167 97.1618 0.172196Q97.3498 0.229224 97.5313 0.304406Q97.7128 0.379587 97.8861 0.472197Q98.0594 0.564807 98.2227 0.673953Q98.3861 0.783099 98.5379 0.907731Q98.6898 1.03236 98.8287 1.17128Q98.9676 1.3102 99.0923 1.46206Q99.2169 1.61393 99.326 1.77727Q99.4352 1.94062 99.5278 2.11388Q99.6204 2.28715 99.6956 2.46865Q99.7708 2.65015 99.8278 2.83815Q99.8848 3.02615 99.9231 3.21883Q99.9615 3.41152 99.9807 3.60703Q100 3.80254 100 3.999L100 56.001Q100 56.1975 99.9807 56.393Q99.9615 56.5885 99.9231 56.7812Q99.8848 56.9739 99.8278 57.1618Q99.7708 57.3498 99.6956 57.5313Q99.6204 57.7129 99.5278 57.8861Q99.4352 58.0594 99.326 58.2227Q99.2169 58.3861 99.0923 58.5379Q98.9676 58.6898 98.8287 58.8287Q98.6898 58.9676 98.5379 59.0923Q98.3861 59.2169 98.2227 59.326Q98.0594 59.4352 97.8861 59.5278Q97.7128 59.6204 97.5313 59.6956Q97.3498 59.7708 97.1618 59.8278Q96.9738 59.8848 96.7812 59.9232Q96.5885 59.9615 96.393 59.9807Q96.1975 60 96.001 60L3.999 60Q3.80254 60 3.60703 59.9807Q3.41152 59.9615 3.21883 59.9232Q3.02615 59.8848 2.83815 59.8278Q2.65015 59.7708 2.46865 59.6956Q2.28715 59.6204 2.11388 59.5278Q1.94062 59.4352 1.77727 59.326Q1.61393 59.2169 1.46206 59.0923Q1.3102 58.9676 1.17128 58.8287Q1.03236 58.6898 0.907731 58.5379Q0.783099 58.3861 0.673953 58.2227Q0.564807 58.0594 0.472197 57.8861Q0.379587 57.7129 0.304406 57.5313Q0.229224 57.3498 0.172196 57.1619Q0.115167 56.9739 0.0768396 56.7812Q0.0385126 56.5885 0.0192563 56.393Q0 56.1975 0 56.001L0 3.999Q0 3.80254 0.0192563 3.60703Q0.0385126 3.41152 0.0768397 3.21883Q0.115167 3.02615 0.172196 2.83815Q0.229224 2.65015 0.304406 2.46865Q0.379587 2.28715 0.472197 2.11388Q0.564807 1.94062 0.673953 1.77727Q0.783099 1.61393 0.907731 1.46206Q1.03236 1.3102 1.17128 1.17128Q1.3102 1.03236 1.46206 0.907731Q1.61393 0.783099 1.77727 0.673953Q1.94062 0.564807 2.11388 0.472197Q2.28715 0.379587 2.46865 0.304406Q2.65015 0.229224 2.83815 0.172196Q3.02615 0.115167 3.21883 0.0768396Q3.41152 0.0385126 3.60703 0.0192563Q3.80254 0 3.999 0L3.999 0Z" id="Rectangle" fill="#F7931A" stroke="none" />
    </g>
    <g id="bitcoin-internet-money-svgrepo-com" transform="translate(27 8)">
      <path d="M0 0L44.9999 0L44.9999 45L0 45L0 0Z" id="Background" fill="none" stroke="none" />
      <g id="Group">
        <path d="M0 22.5001C0 10.0739 10.0739 0 22.4999 0C34.9261 0 44.9999 10.0739 44.9999 22.5001C44.9999 34.9261 34.9261 44.9999 22.4999 44.9999C10.0739 44.9999 0 34.9261 0 22.5001ZM22.4999 41.3037C12.1151 41.3037 3.69618 32.8848 3.69618 22.4999C3.69618 12.1149 12.1151 3.69618 22.4999 3.69618C32.8849 3.69618 41.3038 12.1151 41.3038 22.4999C41.3038 32.8848 32.8849 41.3037 22.4999 41.3037ZM32.1431 18.2413C32.1431 19.6246 31.7132 20.8978 30.9925 21.915C32.4629 22.9842 33.4286 24.7903 33.4255 26.8404C33.4255 30.1246 30.9437 32.7866 27.8813 32.7866L25.7119 32.7866L25.7119 37.4472C25.7119 37.7118 25.4955 37.929 25.2301 37.929L23.6233 37.929C23.3588 37.929 23.1415 37.7125 23.1415 37.4472L23.1415 32.7866L20.5702 32.7866L20.5702 37.4472C20.5702 37.7118 20.3537 37.929 20.0884 37.929L18.4816 37.929C18.217 37.929 17.9997 37.7125 17.9997 37.4472L17.9997 32.7866L12.9497 32.7866C12.6517 32.7866 12.4267 32.5156 12.4818 32.2232L12.789 30.5846C12.8293 30.3719 13.0078 30.2192 13.2227 30.1982C14.7371 30.0522 15.43 28.9863 15.43 27.6433L15.43 17.6789C15.43 16.1861 14.4595 14.9711 12.6486 14.8051C12.4011 14.7826 12.2157 14.5677 12.2157 14.3194L12.2157 12.6963C12.2157 12.4301 12.4313 12.2144 12.6975 12.2144L18.0013 12.2144L18.0013 7.5538C18.0013 7.28921 18.2178 7.07197 18.4832 7.07197L20.09 7.07197C20.3546 7.07197 20.5718 7.28841 20.5718 7.5538L20.5718 12.2144L23.1431 12.2144L23.1431 7.5538C23.1431 7.28921 23.3596 7.07197 23.6249 7.07197L25.2333 7.07197C25.4978 7.07197 25.7151 7.28841 25.7151 7.5538L25.7151 12.2144L26.5989 12.2144C29.6603 12.2144 32.1431 14.9128 32.1431 18.2413ZM20.5711 16.0711L24.5085 16.0711C25.9735 16.0711 27.1604 17.2582 27.1604 18.7231C27.1604 20.1879 25.9735 21.3749 24.5085 21.3749L20.5711 21.3749L20.5711 16.0711ZM20.5711 29.0894L25.7942 29.0894C27.2592 29.0894 28.446 27.9022 28.446 26.4375C28.446 24.9727 27.2592 23.7857 25.7942 23.7857L20.5711 23.7857L20.5711 29.0894Z" id="Shape" fill="#000000" fill-rule="evenodd" stroke="none" />
      </g>
    </g>
  </g>
</svg>