<svg xmlns="http://www.w3.org/2000/svg" width="100" height="60" viewBox="0 0 100 60"><defs><clipPath id="hb3ua"><path fill="#fff" d="M0 4a4 4 0 0 1 4-4h92a4 4 0 0 1 4 4v52a4 4 0 0 1-4 4H4a4 4 0 0 1-4-4z"/></clipPath></defs><g><g><g><g><path fill="#fff" d="M0 4a4 4 0 0 1 4-4h92a4 4 0 0 1 4 4v52a4 4 0 0 1-4 4H4a4 4 0 0 1-4-4z"/><path fill="none" stroke="#e6772f" stroke-miterlimit="50" stroke-width="2" d="M0 4a4 4 0 0 1 4-4h92a4 4 0 0 1 4 4v52a4 4 0 0 1-4 4H4a4 4 0 0 1-4-4z" clip-path="url(&quot;#hb3ua&quot;)"/></g><g><path fill="#e6772f" d="M24.12 60.002h71.885a4 4 0 0 0 4-4V33.7s-26.8 18.17-75.885 26.302z"/></g></g><g><path fill="#1a1919" d="M15.53 21.12c3.827 0 6.497 2.376 6.497 5.795 0 1.709-.818 3.358-2.198 4.45-1.16.922-2.485 1.34-4.32 1.34H12.06V21.12zm2.762 8.7c.814-.692 1.302-1.804 1.302-2.92 0-1.112-.488-2.186-1.302-2.882-.788-.674-1.708-.936-3.238-.936h-.634v7.66h.634c1.53 0 2.487-.28 3.238-.922z"/></g><g><path fill="#1a1919" d="M23.11 21.12h2.353v11.585H23.11z"/></g><g><path fill="#1a1919" d="M31.24 25.563c-1.42-.498-1.834-.83-1.834-1.456 0-.728.741-1.28 1.761-1.28.707 0 1.29.27 1.91.932l1.229-1.542a5.41 5.41 0 0 0-3.554-1.287c-2.143 0-3.776 1.426-3.776 3.312 0 1.602.76 2.414 2.975 3.186.926.308 1.397.518 1.635.66.472.293.707.711.707 1.195 0 .942-.78 1.635-1.835 1.635-1.123 0-2.032-.538-2.576-1.548l-1.522 1.41c1.088 1.526 2.393 2.208 4.19 2.208 2.45 0 4.178-1.57 4.178-3.807 0-1.843-.801-2.678-3.487-3.618"/></g><g><path fill="#1a1919" d="M35.47 26.917c0 3.407 2.795 6.047 6.392 6.047 1.015 0 1.884-.191 2.955-.675v-2.662c-.946.91-1.777 1.269-2.851 1.269-2.378 0-4.061-1.646-4.061-3.995 0-2.219 1.738-3.977 3.957-3.977 1.12 0 1.975.38 2.955 1.303v-2.659c-1.035-.5-1.884-.708-2.906-.708-3.577 0-6.441 2.692-6.441 6.057"/></g><g><path fill="#1a1919" d="M63.953 28.898l-3.229-7.778H58.15l5.132 11.878h1.266L69.78 21.12h-2.554l-3.273 7.778"/></g><g><path fill="#1a1919" d="M70.85 32.705h6.695v-1.963h-4.333v-3.127h4.169v-1.963h-4.169v-2.57h4.333V21.12H70.85v11.585"/></g><g><path fill="#1a1919" d="M86.888 24.538c0 1.773-.976 2.936-2.756 3.284l3.809 4.883h-2.905l-3.262-4.658h-.307v4.658H79.1V21.12h3.507c2.726 0 4.28 1.249 4.28 3.418zm-4.735 1.92c1.513 0 2.304-.625 2.304-1.787 0-1.13-.79-1.724-2.266-1.724h-.724v3.51z"/></g><g><path fill="#e6772f" d="M58.482 26.947c0 3.337-2.824 6.042-6.311 6.042-3.486 0-6.311-2.705-6.311-6.042 0-3.338 2.825-6.043 6.31-6.043 3.488 0 6.312 2.705 6.312 6.043"/></g></g></g></svg>