<svg xmlns="http://www.w3.org/2000/svg" width="100" height="60" viewBox="0 0 100 60"><g><g><g><path fill="#006" d="M0 4a4 4 0 0 1 4-4h92a4 4 0 0 1 4 4v52a4 4 0 0 1-4 4H4a4 4 0 0 1-4-4z"/></g><g><path fill="#c00" d="M56.13 30.485C56.13 41.263 47.393 50 36.616 50 25.837 50 17.1 41.263 17.1 30.485S25.837 10.97 36.616 10.97c10.777 0 19.514 8.737 19.514 19.515"/></g><g><path fill="#f90" d="M62.817 10.97a19.446 19.446 0 0 0-13.101 5.051c-.705.64-1.363 1.33-1.97 2.066h3.943a20.024 20.024 0 0 1 1.487 2.067h-6.918c-.414.664-.79 1.353-1.125 2.067H54.3c.314.669.59 1.358.827 2.066h-10.82a19.428 19.428 0 0 0-.567 2.066h11.953a19.658 19.658 0 0 1-.566 10.332h-10.82c.237.707.513 1.397.826 2.067H54.3a19.55 19.55 0 0 1-1.125 2.066h-6.917c.451.72.948 1.41 1.488 2.065h3.941a19.503 19.503 0 0 1-1.97 2.067 19.443 19.443 0 0 0 13.1 5.05c10.778 0 19.515-8.737 19.515-19.515 0-10.777-8.737-19.515-19.515-19.515"/></g><g><path fill="#006" d="M31.845 36.21l.04-.834c-.535.658-1.25.973-2.22.973-1.148 0-1.935-.896-1.935-2.199 0-1.96 1.369-3.103 3.72-3.103.24 0 .548.022.863.062.065-.266.083-.379.083-.522 0-.533-.37-.733-1.359-.733a7.064 7.064 0 0 0-2.242.363l.293-1.81c1.056-.311 1.752-.427 2.536-.427 1.82 0 2.783.817 2.781 2.36.004.415-.065.924-.171 1.596-.184 1.165-.58 3.665-.633 4.274h-1.756zm-.256-3.62c-1.204 0-1.813.412-1.813 1.226 0 .5.297.82.761.82.866 0 1.49-.822 1.527-2.013a3.665 3.665 0 0 0-.475-.033z"/></g><g><path fill="#006" d="M26.836 36.209h-2.12l1.215-7.61-2.71 7.61h-1.444l-.178-7.567-1.276 7.567H18.34l1.656-9.899h3.047l.184 5.54 1.859-5.54h3.388l-1.638 9.899"/></g><g><path fill="#006" d="M65.216 36.21l.04-.834c-.536.658-1.25.973-2.22.973-1.15 0-1.936-.896-1.936-2.199 0-1.96 1.37-3.103 3.72-3.103.24 0 .547.022.862.062.066-.266.083-.379.083-.522 0-.533-.369-.733-1.358-.733a7.079 7.079 0 0 0-2.244.363c.023-.134.296-1.81.296-1.81 1.055-.311 1.752-.427 2.534-.427 1.82 0 2.783.817 2.781 2.36.004.415-.064.924-.171 1.596-.183 1.165-.579 3.665-.632 4.274h-1.755zm-.26-3.62c-1.2 0-1.804.412-1.804 1.226 0 .5.294.82.757.82.86 0 1.48-.822 1.516-2.013a3.606 3.606 0 0 0-.47-.033z"/></g><g><path fill="#006" d="M43.017 36.086c-.58.183-1.032.262-1.522.262-1.083 0-1.674-.623-1.674-1.769-.015-.356.156-1.292.29-2.145.123-.753.92-5.494.92-5.494h2.105l-.246 1.218h1.272l-.287 1.935h-1.277c-.244 1.531-.593 3.438-.597 3.691 0 .415.221.596.726.596.241 0 .428-.024.57-.075l-.28 1.781"/></g><g><path fill="#006" d="M48.284 31.25h-2.326c.195-.926.675-1.437 1.345-1.437 1.204 0 .993 1.27.98 1.437zm1.183 4.772l.351-2.001c-.756.35-1.436.506-2.189.506-1.226 0-1.973-.486-1.831-1.654h4.193c.184-.813.26-1.39.26-1.98 0-1.779-1.109-2.913-2.845-2.913-2.123 0-3.686 2.026-3.686 4.778 0 2.357 1.229 3.588 3.587 3.591a7.162 7.162 0 0 0 2.16-.327z"/></g><g><path fill="#006" d="M34.872 30.705c0 1.017.494 1.72 1.613 2.247.858.404.991.523.991.889 0 .501-.378.729-1.216.729-.633 0-1.22-.1-1.899-.319l-.291 1.86c.481.104.91.201 2.205.238 2.235 0 3.268-.851 3.268-2.69 0-1.107-.432-1.756-1.494-2.244-.888-.408-.99-.499-.99-.875 0-.435.352-.657 1.037-.657.416 0 .983.044 1.522.12l.301-1.867a14.303 14.303 0 0 0-1.864-.156c-2.37 0-3.19 1.238-3.183 2.725"/></g><g><path fill="#006" d="M59.774 28.192c.588 0 1.138.153 1.893.534l.347-2.148c-.311-.122-1.403-.838-2.329-.838-1.417 0-2.617.704-3.459 1.864-1.23-.407-1.736.416-2.355 1.236l-.55.129c.04-.27.079-.538.067-.81H51.44c-.265 2.492-.736 5.016-1.104 7.509l-.097.541h2.12c.353-2.299.547-3.77.665-4.767l.798-.442c.12-.444.492-.594 1.24-.575a9.017 9.017 0 0 0-.15 1.65c0 2.634 1.423 4.273 3.703 4.273.587 0 1.092-.077 1.873-.29l.371-2.255c-.702.345-1.278.507-1.8.507-1.23 0-1.976-.91-1.976-2.411 0-2.18 1.107-3.707 2.69-3.707"/></g><g><path fill="#006" d="M73.976 32.762c0-1.582.68-2.704 1.637-2.704.725 0 1.119.554 1.119 1.577 0 1.595-.692 2.714-1.674 2.714-.718 0-1.082-.535-1.082-1.587zm3.264-3.592c-.578-.762-1.2-1.314-2.022-1.314-1.069 0-2.042.81-2.679 2.004a17.426 17.426 0 0 1-1.804-.497c.07-.663.1-1.066.093-1.204h-1.946c-.265 2.492-.736 5.015-1.105 7.508l-.097.542h2.12c.286-1.858.505-3.403.666-4.626.725-.655 1.088-1.224 1.818-1.187a6.9 6.9 0 0 0-.513 2.612c0 2.012 1.017 3.34 2.558 3.34.777 0 1.372-.268 1.954-.889l-.1.75h2.004l1.614-9.899h-2.09z"/></g><g><path fill="#fff" d="M27.445 35.618h-2.118l1.214-7.61-2.71 7.61h-1.444l-.178-7.565-1.276 7.565H18.95l1.656-9.898h3.047l.085 6.127 2.056-6.127h3.29l-1.639 9.898"/></g><g><path fill="#fff" d="M32.456 35.62l.04-.834c-.536.659-1.25.974-2.22.974-1.149 0-1.936-.898-1.936-2.2 0-1.96 1.37-3.102 3.72-3.102.24 0 .548.022.863.062.065-.266.083-.38.083-.523 0-.533-.37-.731-1.359-.731a7.037 7.037 0 0 0-2.243.36c.023-.133.294-1.81.294-1.81 1.056-.31 1.752-.426 2.536-.426 1.82 0 2.783.818 2.781 2.36.003.414-.065.926-.171 1.596-.185 1.165-.58 3.666-.633 4.274h-1.755zm-.257-3.619c-1.204 0-1.813.412-1.813 1.225 0 .5.297.82.761.82.866 0 1.49-.82 1.526-2.012a3.542 3.542 0 0 0-.474-.033z"/></g><g><path fill="#fff" d="M62.62 25.987l-.347 2.15c-.756-.38-1.304-.535-1.892-.535-1.582 0-2.691 1.53-2.691 3.712 0 1.503.745 2.412 1.977 2.412.522 0 1.098-.162 1.8-.508l-.373 2.257c-.78.212-1.285.29-1.872.29-2.281 0-3.702-1.641-3.702-4.276 0-3.541 1.964-6.016 4.772-6.016.925 0 2.018.392 2.328.514"/></g><g><path fill="#fff" d="M65.825 35.62l.04-.834c-.535.659-1.25.974-2.22.974-1.149 0-1.935-.898-1.935-2.2 0-1.96 1.368-3.102 3.719-3.102.24 0 .547.022.863.062.065-.266.083-.38.083-.523 0-.533-.368-.731-1.359-.731a7.042 7.042 0 0 0-2.242.36l.294-1.81c1.056-.31 1.751-.426 2.535-.426 1.82 0 2.784.818 2.781 2.36.004.414-.064.926-.171 1.596-.184 1.165-.578 3.666-.633 4.274h-1.755zm-.26-3.619c-1.197 0-1.803.412-1.803 1.225 0 .5.295.82.757.82.86 0 1.48-.82 1.516-2.012a3.476 3.476 0 0 0-.47-.033z"/></g><g><path fill="#fff" d="M43.627 35.496c-.58.182-1.032.261-1.521.261-1.084 0-1.675-.622-1.675-1.767-.015-.357.156-1.292.291-2.146.122-.753.918-5.494.918-5.494h2.107l-.247 1.218h1.081l-.288 1.934H43.21c-.245 1.533-.594 3.439-.598 3.691 0 .417.222.597.726.597.241 0 .428-.024.571-.076l-.28 1.782"/></g><g><path fill="#fff" d="M48.884 30.66h-2.316c.194-.924.672-1.437 1.34-1.437 1.198 0 .987 1.269.976 1.437zm1.194 4.774l.35-2.003c-.757.352-1.437.508-2.19.508-1.225 0-1.973-.487-1.83-1.655h4.194c.182-.814.259-1.39.259-1.98 0-1.78-1.109-2.914-2.847-2.914-2.121 0-3.684 2.026-3.684 4.779 0 2.357 1.228 3.59 3.586 3.59.739.001 1.438-.103 2.162-.325z"/></g><g><path fill="#fff" d="M35.482 30.115c0 1.02.494 1.72 1.613 2.248.858.404.991.523.991.889 0 .502-.378.728-1.217.728a5.97 5.97 0 0 1-1.898-.317l-.291 1.858c.481.105.91.201 2.204.239 2.236 0 3.269-.851 3.269-2.69 0-1.107-.433-1.756-1.494-2.243-.888-.41-.99-.5-.99-.876 0-.435.352-.659 1.037-.659.415 0 .983.046 1.522.122l.301-1.866a14.422 14.422 0 0 0-1.864-.158c-2.37 0-3.19 1.238-3.183 2.725"/></g><g><path fill="#fff" d="M75.67 33.758c-.72 0-1.085-.533-1.085-1.586 0-1.583.682-2.705 1.643-2.705.728 0 1.122.555 1.122 1.578 0 1.595-.692 2.713-1.68 2.713zm3.126 1.86l1.614-9.898h-2.09l-.47 2.86c-.58-.762-1.201-1.097-2.023-1.097-1.868 0-3.447 2.256-3.447 4.934 0 2.014 1.019 3.34 2.558 3.34.777 0 1.372-.268 1.954-.888l-.1.749z"/></g><g><path fill="#fff" d="M69.491 27.569c-.265 2.494-.736 5.02-1.104 7.515l-.097.542h2.119c.758-4.927.94-5.889 2.13-5.769.189-1.008.541-1.892.804-2.337-.888-.185-1.383.317-2.033 1.27.052-.412.145-.812.128-1.221H69.49"/></g><g><path fill="#fff" d="M52.052 27.569c-.266 2.494-.738 5.02-1.106 7.515l-.096.542h2.12c.758-4.927.94-5.889 2.127-5.769.19-1.008.543-1.892.805-2.337-.886-.185-1.383.317-2.03 1.27.05-.412.144-.812.126-1.221h-1.946"/></g></g></g></svg>