<?xml version="1.0" encoding="utf-8"?>
<!-- Generator: Adobe Illustrator 21.1.0, SVG Export Plug-In . SVG Version: 6.00 Build 0)  -->
<svg version="1.1" id="Layer_1" xmlns="http://www.w3.org/2000/svg" xmlns:xlink="http://www.w3.org/1999/xlink" x="0px" y="0px"
	 viewBox="0 0 512 323" style="enable-background:new 0 0 512 323;" xml:space="preserve">
<style type="text/css">
	.st0{fill:#F5BD56;}
	.st1{fill:#167DB0;}
	.st2{fill:#1C567E;}
</style>
<g>
	<g>
		<path class="st0" d="M489.2,0H21.9C12.8,0,7.1,1.4,4,4.3C1.3,7.6,0,13,0,21v29.9V75v172.3v25.2v28.8C0,315.6,7.4,323,21.9,323
			h467.3c15.2,0,22.8-7.4,22.8-21.7v-28.8v-25.2V74.9V50.8V20.9C512,6.8,504.4,0,489.2,0z"/>
	</g>
	<g>
		<g>
			<path class="st1" d="M376.6,122.4c-10.7,0-19.2,2.8-25.7,4.1l-2,16.3c3.2-1.6,13.5-4.4,22-4.7s13.5,1.6,11.7,8.8
				c-25.2,0-42.2,5.2-45.7,21.5c-5,28,25.7,27.2,38,15l-1.5,6.7h22.5l9.7-44.6C409.6,126.8,392.4,122.1,376.6,122.4z M378.1,168
				c-1.2,6-6,8.5-11.7,8.8c-5,0.3-9.5-4.1-6.2-9.3c2.5-4.4,9.5-5.4,13.7-5.4c1.7,0,3.8,0,5.5,0C378.9,164.1,378.6,165.9,378.1,168z"
				/>
			<polygon class="st1" points="424.8,104.8 406.2,190.3 429.1,190.3 447.9,104.8 424.8,104.8 			"/>
			<path class="st1" d="M320,105h-41.8l-18.5,85.2H284l6.3-28.2h17.3c17,0,31-10.4,34.8-28C346.5,114.1,332,105,320,105z M319.2,134
				c-1.5,6.5-8,11.7-14.3,11.7h-11.3l5-23.3h12C317,122.4,320.7,127.6,319.2,134z"/>
		</g>
		<g>
			<path class="st2" d="M157.8,122.4c-10.6,0-19,2.8-25.2,4.1l-2,16.3c3-1.6,13.1-4.4,21.5-4.7s13.3,1.6,11.8,8.8
				c-24.9,0-41.7,5.2-45.1,21.5c-4.9,28,25.4,27.2,37.2,15l-1.5,6.7H177l9.6-44.6C190.6,126.8,173.3,122.1,157.8,122.4z M159.5,168
				c-1.2,6-6.2,8.5-11.8,8.8c-4.9,0.3-9.1-4.1-5.9-9.3c2.5-4.4,9.4-5.4,13.3-5.4c2,0,3.7,0,5.7,0C160.2,164.1,159.7,165.9,159.5,168
				z"/>
			<polygon class="st2" points="196.4,123.6 218.9,123.6 222.5,163.3 244.4,123.6 267.6,123.6 214.3,218.6 189.2,218.6 205.6,190.7 
				196.4,123.6 			"/>
			<path class="st2" d="M101.9,105H60.1l-18.6,85.2h24.6l6-28.2h17.6c16.8,0,30.9-10.4,34.6-28C128.5,114.1,114.2,105,101.9,105z
				 M101.2,134c-1.5,6.5-7.8,11.7-14.1,11.7H75.6l5.3-23.3h12C98.9,122.4,103,127.6,101.2,134z"/>
		</g>
		<g>
			<path class="st2" d="M452.8,115.8v-10.1H449v-1.4h9.1v1.4h-3.8v10.1H452.8z"/>
			<path class="st2" d="M459.6,115.8v-11.4h2.3l2.7,8.1c0.3,0.8,0.4,1.3,0.5,1.7c0.1-0.4,0.3-1,0.6-1.8l2.7-7.9h2v11.4h-1.5v-9.6
				l-3.3,9.6h-1.4l-3.3-9.7v9.7h-1.3V115.8z"/>
		</g>
	</g>
</g>
</svg>
