<svg xmlns="http://www.w3.org/2000/svg" width="100" height="60" viewBox="0 0 100 60"><g><g><g><path fill="#0b4a8e" d="M0 4a4 4 0 0 1 4-4h92a4 4 0 0 1 4 4v52a4 4 0 0 1-4 4H4a4 4 0 0 1-4-4z"/></g><g><path fill="#fff" d="M13.04 40.584l.738-.074c.044.248.134.43.27.548.136.116.319.175.55.175.243 0 .427-.052.551-.156a.463.463 0 0 0 .186-.363.345.345 0 0 0-.078-.228.625.625 0 0 0-.272-.163 9.678 9.678 0 0 0-.605-.163c-.406-.1-.69-.224-.854-.37a.975.975 0 0 1-.344-.755c0-.19.054-.369.162-.535.108-.166.265-.293.469-.38.204-.086.45-.13.738-.13.472 0 .826.104 1.064.31.238.208.363.485.375.83l-.76.03c-.032-.193-.102-.332-.208-.417-.107-.084-.267-.127-.48-.127-.22 0-.393.045-.517.136a.273.273 0 0 0-.12.233.29.29 0 0 0 .112.228c.095.08.327.164.696.25.368.088.64.178.817.271.177.093.315.221.415.383.1.162.15.362.15.6a1.11 1.11 0 0 1-.687 1.027c-.219.091-.491.137-.818.137-.475 0-.84-.11-1.094-.331-.254-.221-.406-.543-.456-.966"/></g><g><path fill="#fff" d="M16.88 38.714h.722v-.664h-.722zm0 3.093h.722v-2.72h-.722z"/></g><g><path fill="#fff" d="M20.98 41.808h-.722v-1.392c0-.294-.015-.485-.046-.57a.402.402 0 0 0-.149-.203.426.426 0 0 0-.249-.072.573.573 0 0 0-.334.103.516.516 0 0 0-.203.272c-.036.113-.054.322-.054.627v1.235H18.5v-2.721h.67v.4c.238-.311.537-.467.897-.467.158 0 .304.029.435.086a.73.73 0 0 1 .298.22c.068.089.115.19.141.303.027.112.04.274.04.484v1.695"/></g><g><path fill="#fff" d="M22.609 42.076c.014.101.045.171.095.21.069.054.177.08.324.08.189 0 .33-.027.424-.084a.35.35 0 0 0 .144-.182c.022-.06.034-.17.034-.33l.002-.398c-.213.29-.484.436-.812.436-.366 0-.655-.155-.869-.465-.167-.244-.251-.55-.251-.914 0-.457.11-.806.33-1.047.219-.241.492-.362.818-.362.337 0 .615.148.834.444v-.377h.67v2.446c0 .321-.026.562-.08.72a.89.89 0 0 1-.222.376.987.987 0 0 1-.384.213c-.16.05-.362.077-.607.077-.461 0-.789-.08-.982-.24a.75.75 0 0 1-.29-.605c0-.024 0-.053.002-.087zm-.005-1.042a.51.51 0 0 0 .41.202c.175 0 .322-.069.443-.207.12-.139.18-.344.18-.616 0-.284-.058-.495-.173-.632a.546.546 0 0 0-.437-.207.524.524 0 0 0-.423.203c-.111.135-.166.34-.166.618 0 .29.055.504.166.639z"/></g><g><path fill="#fff" d="M25.22 38.05h.723v3.757h-.723z"/></g><g><path fill="#fff" d="M29.14 41.073c-.092.26-.238.46-.438.597-.2.137-.449.205-.749.205-.474 0-.825-.155-1.053-.464-.18-.248-.27-.56-.27-.939 0-.45.118-.804.355-1.06.236-.255.534-.383.896-.383.406 0 .726.134.96.402.235.269.347.68.337 1.233h-1.81c.005.213.063.38.175.498a.554.554 0 0 0 .42.178.45.45 0 0 0 .286-.091.563.563 0 0 0 .176-.295zm-.838-1.332a.501.501 0 0 0-.378-.164.507.507 0 0 0-.394.173c-.104.115-.154.272-.153.47h1.088c-.005-.21-.059-.37-.163-.48z"/></g><g><path fill="#fff" d="M31.54 41.807V38.05h2.78v.634H32.3v.835h1.878v.633H32.3v1.021h2.094v.634H31.54"/></g><g><path fill="#fff" d="M36.97 41.81v-.407c-.099.146-.23.261-.391.347a1.083 1.083 0 0 1-1.006.007.713.713 0 0 1-.315-.338c-.066-.146-.098-.347-.098-.604V39.09h.723v1.251c0 .383.013.618.04.704a.383.383 0 0 0 .144.206c.07.05.159.075.267.075a.565.565 0 0 0 .53-.352c.036-.1.054-.345.054-.735V39.09h.723v2.72h-.67"/></g><g><path fill="#fff" d="M39.233 41.808h-.723v-2.721h.67v.387c.115-.183.218-.304.31-.364a.556.556 0 0 1 .311-.09c.164 0 .323.046.475.136l-.22.63a.637.637 0 0 0-.34-.117.403.403 0 0 0-.257.083c-.07.056-.126.156-.166.301-.04.146-.06.45-.06.913v.842"/></g><g><path fill="#fff" d="M40.747 39.719c.118-.224.285-.395.5-.513.217-.118.458-.177.725-.177.412 0 .749.134 1.012.401.263.268.395.606.395 1.014 0 .412-.133.754-.399 1.025-.265.27-.6.406-1.003.406-.25 0-.487-.057-.714-.17a1.16 1.16 0 0 1-.516-.495c-.118-.218-.177-.483-.177-.797 0-.239.059-.47.177-.694zm.753 1.352a.613.613 0 0 0 .476.215.609.609 0 0 0 .474-.215c.127-.144.191-.352.191-.625 0-.266-.064-.472-.191-.615a.609.609 0 0 0-.474-.215.613.613 0 0 0-.476.215c-.128.143-.192.35-.192.62s.064.476.192.62z"/></g><g><path fill="#fff" d="M45.73 38.05h1.216c.461 0 .762.02.902.057.215.056.395.179.54.368.145.188.218.432.218.731 0 .231-.042.425-.126.582a1.03 1.03 0 0 1-.318.37c-.129.09-.26.15-.393.179a4.303 4.303 0 0 1-.785.054h-.494v1.416h-.76zm.76 1.717h.414c.298 0 .497-.02.598-.06a.498.498 0 0 0 .321-.482.496.496 0 0 0-.424-.512 3.586 3.586 0 0 0-.544-.025h-.365z"/></g><g><path fill="#fff" d="M49.255 39.802c.073-.263.2-.457.379-.583.18-.126.446-.19.8-.19.32 0 .56.038.717.114a.718.718 0 0 1 .332.29c.064.116.096.33.096.643l-.007.84c0 .238.011.414.034.527.023.114.066.235.13.365h-.716a2.461 2.461 0 0 1-.07-.209 1.628 1.628 0 0 0-.024-.083c-.123.12-.255.21-.395.27-.14.059-.289.089-.447.089-.28 0-.501-.076-.662-.228a.758.758 0 0 1-.242-.576c0-.153.037-.29.11-.41a.722.722 0 0 1 .309-.277c.132-.064.323-.12.573-.168.336-.063.57-.122.7-.176v-.073c0-.14-.035-.24-.104-.299-.069-.06-.198-.089-.389-.089a.52.52 0 0 0-.301.076.525.525 0 0 0-.175.266zm1.179.822c-.2.043-.33.085-.39.126a.302.302 0 0 0-.141.255c0 .101.037.188.112.262.075.074.17.111.286.111a.62.62 0 0 0 .371-.129.454.454 0 0 0 .171-.24c.019-.06.028-.178.028-.352v-.144a4.467 4.467 0 0 1-.437.11z"/></g><g><path fill="#fff" d="M52.1 39.09h.767l.652 1.932.637-1.932h.745l-1.133 3.097a1.95 1.95 0 0 1-.181.365.787.787 0 0 1-.198.204.858.858 0 0 1-.274.122c-.109.029-.232.044-.368.044a1.91 1.91 0 0 1-.409-.044l-.067-.564c.113.022.216.033.307.033.168 0 .293-.05.373-.149.081-.1.143-.226.186-.38L52.1 39.09"/></g><g><path fill="#fff" d="M55.47 39.087h.663v.372c.238-.293.522-.439.85-.439.175 0 .327.036.455.108a.83.83 0 0 1 .316.326c.12-.146.25-.254.388-.326a.95.95 0 0 1 .443-.108c.2 0 .37.04.508.122.139.081.243.2.311.358.05.116.074.305.074.565v1.743h-.722v-1.559c0-.27-.025-.444-.075-.523-.066-.103-.169-.155-.307-.155-.1 0-.195.031-.284.093a.512.512 0 0 0-.192.271c-.04.119-.059.307-.059.563v1.31h-.723v-1.494c0-.266-.012-.437-.038-.514a.326.326 0 0 0-.119-.172.377.377 0 0 0-.219-.057c-.11 0-.21.03-.3.09a.495.495 0 0 0-.19.26c-.038.113-.057.3-.057.562v1.325h-.723v-2.721"/></g><g><path fill="#fff" d="M62.64 41.073c-.092.26-.238.46-.437.597-.2.137-.45.205-.75.205-.474 0-.825-.155-1.053-.464-.18-.248-.27-.56-.27-.939 0-.45.118-.804.355-1.06.236-.255.535-.383.896-.383.406 0 .726.134.96.402.235.269.347.68.337 1.233h-1.81c.005.213.064.38.176.498a.553.553 0 0 0 .419.178c.113 0 .209-.03.287-.091a.56.56 0 0 0 .176-.295zm-.84-1.332a.497.497 0 0 0-.376-.164.502.502 0 0 0-.391.173c-.104.115-.154.272-.152.47h1.082c-.005-.21-.06-.37-.163-.48z"/></g><g><path fill="#fff" d="M65.89 41.808h-.722v-1.392c0-.294-.015-.485-.046-.57a.403.403 0 0 0-.149-.203.426.426 0 0 0-.249-.072.572.572 0 0 0-.334.103.517.517 0 0 0-.203.272c-.036.113-.054.322-.054.627v1.235h-.723v-2.721h.67v.4c.238-.311.537-.467.897-.467.158 0 .304.029.435.086a.73.73 0 0 1 .298.22c.068.089.115.19.141.303.027.112.04.274.04.484v1.695"/></g><g><path fill="#fff" d="M68.032 39.089v.574h-.492v1.1c0 .223.005.353.014.39.01.037.03.067.063.092a.198.198 0 0 0 .12.036c.065 0 .16-.024.284-.07l.063.558a1.417 1.417 0 0 1-.566.108.891.891 0 0 1-.349-.066.51.51 0 0 1-.228-.17.67.67 0 0 1-.1-.28 3.5 3.5 0 0 1-.023-.509v-1.19h-.328v-.573h.328v-.544l.722-.425v.969h.492"/></g><g><path fill="#fff" d="M68.43 41.043l.723-.112c.03.139.093.244.186.316.094.072.225.108.394.108.186 0 .326-.034.42-.103a.23.23 0 0 0 .095-.193c0-.055-.018-.1-.052-.136-.036-.034-.117-.066-.242-.095-.584-.129-.954-.246-1.11-.352a.699.699 0 0 1-.325-.612c0-.236.094-.434.28-.594.188-.16.478-.24.871-.24.375 0 .653.06.835.18.182.12.307.297.376.533l-.678.126a.419.419 0 0 0-.167-.243.618.618 0 0 0-.351-.084c-.192 0-.33.026-.412.08a.17.17 0 0 0-.083.146c0 .052.024.095.072.132.065.047.29.115.675.203.385.087.654.194.807.32.15.13.227.308.227.538 0 .25-.105.464-.313.644-.209.18-.517.27-.925.27-.37 0-.663-.075-.88-.224a1.031 1.031 0 0 1-.423-.608"/></g><g><path fill="#fff" d="M75.952 41.807l-.325-.85h-1.513l-.31.85H73l1.455-3.757h.799l1.516 3.757zm-1.096-2.877l-.512 1.394h1.043z"/></g><g><path fill="#fff" d="M78.003 41.808h-.723v-2.721h.67v.387c.115-.183.218-.304.31-.364a.555.555 0 0 1 .311-.09c.164 0 .322.046.475.136l-.22.63a.637.637 0 0 0-.34-.117.403.403 0 0 0-.257.083c-.07.056-.126.156-.166.301-.04.146-.06.45-.06.913v.842"/></g><g><path fill="#fff" d="M81.81 41.073c-.092.26-.238.46-.437.597-.2.137-.45.205-.75.205-.474 0-.825-.155-1.053-.464-.18-.248-.27-.56-.27-.939 0-.45.118-.804.355-1.06.236-.255.535-.383.896-.383.406 0 .726.134.96.402.235.269.347.68.337 1.233h-1.81c.005.213.064.38.175.498a.554.554 0 0 0 .42.178.45.45 0 0 0 .287-.091.565.565 0 0 0 .176-.295zm-.84-1.332a.498.498 0 0 0-.376-.164.502.502 0 0 0-.391.173c-.104.115-.154.272-.152.47h1.082c-.005-.21-.06-.37-.162-.48z"/></g><g><path fill="#fff" d="M82.474 39.802c.074-.263.2-.457.38-.583.179-.126.446-.19.8-.19.32 0 .56.038.717.114a.718.718 0 0 1 .332.29c.064.116.096.33.096.643l-.008.84c0 .238.012.414.035.527.023.114.066.235.129.365h-.715a2.548 2.548 0 0 1-.07-.209 1.412 1.412 0 0 0-.025-.083c-.123.12-.254.21-.394.27-.14.059-.289.089-.448.089-.28 0-.5-.076-.661-.228a.759.759 0 0 1-.242-.576c0-.153.036-.29.11-.41a.72.72 0 0 1 .309-.277c.132-.064.323-.12.573-.168.336-.063.57-.122.699-.176v-.073c0-.14-.034-.24-.103-.299-.069-.06-.198-.089-.389-.089a.52.52 0 0 0-.301.076.526.526 0 0 0-.175.266zm1.18.822c-.2.043-.33.085-.391.126a.302.302 0 0 0-.14.255c0 .101.037.188.112.262.075.074.17.111.286.111a.62.62 0 0 0 .37-.129.454.454 0 0 0 .172-.24c.019-.06.028-.178.028-.352v-.144a4.449 4.449 0 0 1-.437.11z"/></g><g><path fill="#fff" d="M28.997 23.288h-4.92c0-.808-.095-1.35-.284-1.626-.293-.408-1.101-.613-2.424-.613-1.284 0-2.136.118-2.552.353-.415.236-.623.75-.623 1.54 0 .716.184 1.188.553 1.414.265.16.614.254 1.05.282l.992.07c2.126.142 3.455.241 3.984.298 1.682.17 2.901.617 3.658 1.342.595.566.95 1.305 1.063 2.218.067.546.1 1.164.1 1.851 0 1.583-.151 2.742-.454 3.477-.548 1.348-1.778 2.2-3.693 2.557-.802.151-2.03.227-3.68.227-2.756 0-4.676-.164-5.76-.494-1.331-.404-2.209-1.223-2.633-2.456-.237-.686-.354-1.829-.354-3.429h4.92v.41c0 .853.246 1.402.736 1.647.339.168.748.257 1.23.267h1.809c.923 0 1.512-.047 1.766-.142.452-.178.75-.464.891-.86.075-.245.113-.56.113-.947 0-.866-.316-1.392-.947-1.581-.235-.075-1.333-.179-3.29-.31-1.573-.113-2.666-.221-3.278-.326-1.61-.302-2.684-.921-3.22-1.863-.47-.8-.706-2.01-.706-3.628 0-1.233.127-2.221.382-2.965.254-.744.664-1.308 1.23-1.695.83-.592 1.892-.94 3.183-1.044a41.429 41.429 0 0 1 3.58-.142c2.065 0 3.537.119 4.414.354 2.141.576 3.212 2.188 3.212 4.837 0 .218-.016.543-.048.977"/></g><g><path fill="#fff" d="M50.64 17.02h9.854c1.351 0 2.383.11 3.091.331 1.62.508 2.708 1.548 3.265 3.12.288.826.432 2.068.432 3.727 0 1.994-.16 3.427-.475 4.3-.632 1.725-1.933 2.72-3.898 2.977-.23.039-1.214.073-2.949.1l-.878.03H55.93v5.077H50.64zm8.586 10.024c1.046-.037 1.681-.118 1.91-.244.313-.172.523-.516.627-1.032.067-.344.1-.855.1-1.534 0-.831-.066-1.448-.2-1.85-.19-.564-.645-.908-1.367-1.032-.142-.02-.484-.03-1.025-.03h-3.342v5.722z"/></g><g><path fill="#fff" d="M71.492 33.284l-.95 3.398H65.07l5.904-19.662h7.979l5.977 19.662h-5.357l-1.01-3.398zm3.543-12.354l-2.405 8.523h4.883z"/></g><g><path fill="#f6bc25" d="M43.34 19.785a6.952 6.952 0 0 1 5.408 2.58l1.14-2.445A9.993 9.993 0 0 0 43 17.195c-4.167 0-7.732 2.517-9.195 6.081h-2.223l-1.313 2.815h2.86a9.6 9.6 0 0 0-.035.79c0 .322.016.64.048.956h-1.437l-1.312 2.816h3.48c1.505 3.473 5.025 5.912 9.127 5.912 2.068 0 3.986-.62 5.574-1.678v-3.451a6.95 6.95 0 0 1-5.235 2.377 6.966 6.966 0 0 1-5.832-3.16h7.289l1.312-2.816h-9.673a7.13 7.13 0 0 1-.041-1.746h10.528l1.312-2.815h-10.93a6.97 6.97 0 0 1 6.035-3.49"/></g></g></g></svg>