<?xml version="1.0" encoding="UTF-8"?>
<svg xmlns="http://www.w3.org/2000/svg" xmlns:xlink="http://www.w3.org/1999/xlink" width="100pt" height="60pt" viewBox="0 0 100 60" version="1.1">
<g id="surface1">
<path style=" stroke:none;fill-rule:nonzero;fill:rgb(100%,100%,100%);fill-opacity:1;" d="M 0 4.300781 L 0 57.03125 L 100 57.644531 L 100 4.300781 Z M 0 4.300781 "/>
<path style=" stroke:none;fill-rule:nonzero;fill:rgb(0%,34.509804%,62.745098%);fill-opacity:1;" d="M 16.566406 21.152344 L 22.386719 42.121094 L 29.164062 42.121094 L 39.6875 17.828125 L 32.835938 17.828125 L 26.1875 34.3125 L 23.472656 21.414062 Z M 16.566406 21.152344 "/>
<path style=" stroke:none;fill-rule:nonzero;fill:rgb(0%,34.509804%,62.745098%);fill-opacity:1;" d="M 42.257812 17.742188 L 38.21875 42.121094 L 44.609375 42.121094 L 48.742188 17.742188 Z M 42.257812 17.742188 "/>
<path style=" stroke:none;fill-rule:nonzero;fill:rgb(0%,34.509804%,62.745098%);fill-opacity:1;" d="M 67.566406 23.566406 L 68.503906 18.457031 C 66.511719 17.769531 64.414062 17.40625 62.296875 17.390625 C 58.917969 17.390625 51.570312 19.457031 51.570312 25.457031 C 51.570312 31.460938 60.753906 31.742188 60.753906 35.050781 C 60.753906 38.355469 52.582031 38.007812 50.121094 35.855469 L 49.089844 41.105469 C 51.324219 41.898438 53.671875 42.351562 56.050781 42.453125 C 59.339844 42.453125 67.53125 41.734375 67.53125 33.945312 C 67.53125 27.136719 58.347656 28.484375 58.347656 24.355469 C 58.347656 24.355469 59.285156 20.226562 67.53125 23.550781 Z M 67.566406 23.566406 "/>
<path style=" stroke:none;fill-rule:nonzero;fill:rgb(0%,34.509804%,62.745098%);fill-opacity:1;" d="M 67.089844 42.191406 L 74.140625 42.191406 L 75.296875 38.6875 L 83.949219 38.6875 L 84.664062 42.191406 L 90.78125 42.191406 L 85.234375 18.019531 L 79.597656 18.019531 C 78.171875 18.296875 77.015625 19.289062 76.585938 20.609375 C 75.703125 22.9375 67.089844 42.191406 67.089844 42.191406 Z M 67.089844 42.191406 "/>
<path style=" stroke:none;fill-rule:nonzero;fill:rgb(100%,100%,100%);fill-opacity:1;" d="M 82.976562 33.597656 L 77.246094 33.597656 L 80.828125 24.636719 Z M 82.976562 33.597656 "/>
<path style=" stroke:none;fill-rule:nonzero;fill:rgb(0%,34.509804%,62.745098%);fill-opacity:1;" d="M 25.472656 30.9375 L 23.453125 21.414062 C 23.453125 21.414062 23.175781 17.914062 20.496094 17.914062 L 9.585938 17.914062 L 9.585938 18.40625 C 16.6875 19.960938 22.585938 24.648438 25.472656 31.023438 Z M 25.472656 30.9375 "/>
<path style=" stroke:none;fill-rule:nonzero;fill:rgb(98.039216%,65.098039%,10.196078%);fill-opacity:1;" d="M 100 45.691406 L 0 45.691406 L 0 57.941406 C 0 58.996094 0.894531 59.847656 2 59.847656 L 98 59.847656 C 99.105469 59.847656 100 58.996094 100 57.941406 Z M 100 45.691406 "/>
<path style=" stroke:none;fill-rule:nonzero;fill:rgb(0%,34.509804%,62.745098%);fill-opacity:1;" d="M 98 0.1875 L 2 0.1875 C 0.894531 0.1875 0 1.039062 0 2.09375 L 0 14.34375 L 100 14.34375 L 100 2.09375 C 100 1.039062 99.105469 0.1875 98 0.1875 Z M 98 0.1875 "/>
</g>
</svg>
